HIERARCHY
ROOT Hips
{
	OFFSET 0.000000 0.000000 0.000000
	CHANNELS 6 Xposition Yposition Zposition Zrotation Yrotation Xrotation 
	JOINT LHipJoint
	{
		OFFSET 0.000000 0.000000 0.000000
		CHANNELS 3 Zrotation Yrotation Xrotation
		JOINT LeftUpLeg
		{
			OFFSET 1.363060 -1.794630 0.839290
			CHANNELS 3 Zrotation Yrotation Xrotation
			JOINT LeftLeg
			{
				OFFSET 2.448110 -6.726130 0.000000
				CHANNELS 3 Zrotation Yrotation Xrotation
				JOINT LeftFoot
				{
					OFFSET 2.562200 -7.039590 0.000000
					CHANNELS 3 Zrotation Yrotation Xrotation
					JOINT LeftToeBase
					{
						OFFSET 0.157640 -0.433110 2.322550
						CHANNELS 3 Zrotation Yrotation Xrotation
						End Site
						{
							OFFSET 0.000000 0.000000 0.000000
						}
					}
				}
			}
		}
	}
	JOINT RHipJoint
	{
		OFFSET 0.000000 0.000000 0.000000
		CHANNELS 3 Zrotation Yrotation Xrotation
		JOINT RightUpLeg
		{
			OFFSET -1.305520 -1.794630 0.839290
			CHANNELS 3 Zrotation Yrotation Xrotation
			JOINT RightLeg
			{
				OFFSET -2.542530 -6.985550 0.000000
				CHANNELS 3 Zrotation Yrotation Xrotation
				JOINT RightFoot
				{
					OFFSET -2.568260 -7.056230 0.000000
					CHANNELS 3 Zrotation Yrotation Xrotation
					JOINT RightToeBase
					{
						OFFSET -0.164730 -0.452590 2.363150
						CHANNELS 3 Zrotation Yrotation Xrotation
						End Site
						{
							OFFSET 0.000000 0.000000 0.000000
						}
					}
				}
			}
		}
	}
	JOINT LowerBack
	{
		OFFSET 0.000000 0.000000 0.000000
		CHANNELS 3 Zrotation Yrotation Xrotation
		JOINT Spine
		{
			OFFSET 0.028270 2.035590 -0.193380
			CHANNELS 3 Zrotation Yrotation Xrotation
			JOINT Spine1
			{
				OFFSET 0.056720 2.048850 -0.042750
				CHANNELS 3 Zrotation Yrotation Xrotation
				JOINT Neck
				{
					OFFSET 0.000000 0.000000 0.000000
					CHANNELS 3 Zrotation Yrotation Xrotation
					JOINT Neck1
					{
						OFFSET -0.054170 1.746240 0.172020
						CHANNELS 3 Zrotation Yrotation Xrotation
						JOINT Head
						{
							OFFSET 0.104070 1.761360 -0.123970
							CHANNELS 3 Zrotation Yrotation Xrotation
							End Site
							{
								OFFSET 0.000000 0.000000 0.000000
							}
						}
					}
				}
				JOINT LeftShoulder
				{
					OFFSET 0.000000 0.000000 0.000000
					CHANNELS 3 Zrotation Yrotation Xrotation
					JOINT LeftArm
					{
						OFFSET 3.362410 1.200890 -0.311210
						CHANNELS 3 Zrotation Yrotation Xrotation
						JOINT LeftForeArm
						{
							OFFSET 4.983000 -0.000000 -0.000000
							CHANNELS 3 Zrotation Yrotation Xrotation
							JOINT LeftHand
							{
								OFFSET 3.483560 -0.000000 -0.000000
								CHANNELS 3 Zrotation Yrotation Xrotation
								JOINT LeftFingerBase
								{
									OFFSET 0.000000 0.000000 0.000000
									CHANNELS 3 Zrotation Yrotation Xrotation
									JOINT LeftHandIndex1
									{
										OFFSET 0.715260 -0.000000 -0.000000
										CHANNELS 3 Zrotation Yrotation Xrotation
										End Site
										{
											OFFSET 0.000000 0.000000 0.000000
										}
									}
								}
								JOINT LThumb
								{
									OFFSET 0.000000 0.000000 0.000000
									CHANNELS 3 Zrotation Yrotation Xrotation
									End Site
									{
										OFFSET 0.000000 0.000000 0.000000
									}
								}
							}
						}
					}
				}
				JOINT RightShoulder
				{
					OFFSET 0.000000 0.000000 0.000000
					CHANNELS 3 Zrotation Yrotation Xrotation
					JOINT RightArm
					{
						OFFSET -3.136600 1.374050 -0.404650
						CHANNELS 3 Zrotation Yrotation Xrotation
						JOINT RightForeArm
						{
							OFFSET -5.241900 -0.000000 -0.000000
							CHANNELS 3 Zrotation Yrotation Xrotation
							JOINT RightHand
							{
								OFFSET -3.444170 -0.000000 -0.000000
								CHANNELS 3 Zrotation Yrotation Xrotation
								JOINT RightFingerBase
								{
									OFFSET 0.000000 0.000000 0.000000
									CHANNELS 3 Zrotation Yrotation Xrotation
									JOINT RightHandIndex1
									{
										OFFSET -0.622530 -0.000000 -0.000000
										CHANNELS 3 Zrotation Yrotation Xrotation
										End Site
										{
											OFFSET 0.000000 0.000000 0.000000
										}
									}
								}
								JOINT RThumb
								{
									OFFSET 0.000000 0.000000 0.000000
									CHANNELS 3 Zrotation Yrotation Xrotation
									End Site
									{
										OFFSET 0.000000 0.000000 0.000000
									}
								}
							}
						}
					}
				}
			}
		}
	}
}
MOTION
Frames: 6
Frame Time: 0.008333
8.339831 17.317083 1.684692 9.211693 80.489662 36.884999 -9.103244 0.307913 6.404128 -5.124719 -7.259085 -51.986719 -2.437164 -0.609209 17.818389 1.616334 5.770268 -8.558847 0.329400 0.000000 -30.300200 10.159349 -4.323041 2.336007 3.843942 -0.015379 -3.662787 1.294576 -0.321663 5.069671 0.023605 1.045500 22.316935 0.215500 -0.000000 -68.955800 -4.297167 1.002091 -9.319593 -1.743003 1.045801 -4.733722 -5.185166 0.971768 -0.044018 5.586619 -4.047431 -5.679696 -1.780340 -0.160773 0.523508 0.000000 0.000000 0.000000 4.831573 9.057298 3.270575 -8.272101 -19.566299 -12.075957 -0.512516 -72.347407 -0.116513 15.447370 -2.421512 -0.405852 -0.382952 0.508221 0.000000 0.000000 0.000000 0.000000 0.000000 0.000000 0.000000 3.599643 1.735512 -0.066501 33.025147 40.142409 -5.564653 -0.026307 77.380677 -0.116554 -12.800607 7.386395 -0.904735 0.108534 -0.604797 0.000000 0.000000 0.000000 0.000000 0.000000 0.000000 0.000000 
8.661923 17.294414 1.700711 8.133298 79.871604 35.580761 -9.005670 0.221693 6.605900 -4.754521 -7.081733 -51.160707 -2.675909 -1.201193 12.606423 1.463270 5.132799 -8.143412 0.368301 -0.000000 -31.493900 10.196758 -4.409724 2.205037 3.388352 0.024225 -2.038138 1.208690 -0.381378 4.141695 -0.022909 1.311298 24.500203 0.440500 0.000000 -68.094000 -4.647649 1.109115 -9.354302 -1.782720 1.182019 -4.741675 -4.997553 1.100364 -0.039212 5.635855 -3.978914 -5.652956 -1.623917 -0.150038 0.533424 0.000000 0.000000 0.000000 4.581703 9.361931 3.403310 -8.284271 -18.771652 -13.542893 -0.597510 -70.397822 -0.115018 15.426538 -2.581747 -0.427520 -0.383956 0.507038 0.000000 0.000000 0.000000 0.000000 0.000000 0.000000 0.000000 2.972616 1.887977 -0.201947 32.671490 41.662430 -3.978427 -0.006172 78.181859 -0.116800 -12.624332 7.464454 -0.901655 0.104903 -0.612676 -0.000000 0.000000 0.000000 0.000000 0.000000 0.000000 0.000000 
8.984714 17.258746 1.713859 6.958380 79.225049 34.045722 -8.958258 0.110782 6.711865 -4.439325 -6.694548 -50.336548 -2.848436 -1.702683 8.127710 1.274665 4.433412 -7.508624 0.413700 -0.000000 -32.490700 10.209405 -4.495595 2.062505 2.951361 0.017941 -0.316538 1.133439 -0.445707 3.363577 -0.064086 1.685562 26.457793 0.733100 -0.000000 -66.466700 -4.938083 1.227314 -9.299415 -1.807910 1.326464 -4.729674 -4.803365 1.238701 -0.036717 5.660149 -3.950554 -5.627316 -1.463804 -0.138994 0.542647 0.000000 0.000000 0.000000 4.331302 9.668771 3.517280 -8.302136 -18.009585 -15.032667 -0.684210 -68.367675 -0.114849 15.541748 -2.716486 -0.449489 -0.386808 0.506170 0.000000 0.000000 0.000000 0.000000 0.000000 0.000000 0.000000 2.316343 1.994547 -0.335602 32.246347 43.270110 -2.433826 0.012328 78.918803 -0.117193 -12.476044 7.525570 -0.898489 0.101491 -0.619900 -0.000000 0.000000 0.000000 0.000000 0.000000 0.000000 0.000000 
9.307903 17.210181 1.725045 5.919833 78.588671 32.539560 -8.945073 0.002520 6.715928 -4.334760 -6.075263 -49.718111 -2.998092 -2.060632 4.731753 1.044159 3.566318 -6.721908 0.447400 0.000000 -33.441400 10.213565 -4.586721 1.923803 2.499627 -0.071714 1.421751 1.063891 -0.514363 2.777605 -0.099568 2.168655 28.167707 1.096700 -0.000000 -64.239000 -5.198774 1.340983 -9.177303 -1.824450 1.465327 -4.703329 -4.605728 1.372406 -0.035445 5.673535 -3.967574 -5.602638 -1.304294 -0.127960 0.551304 0.000000 0.000000 0.000000 4.096707 9.954333 3.611749 -8.316211 -17.273630 -16.543891 -0.769872 -66.252395 -0.116142 15.804545 -2.810567 -0.470561 -0.391670 0.505472 0.000000 0.000000 0.000000 0.000000 0.000000 0.000000 0.000000 1.669815 2.040385 -0.463421 31.706480 44.964009 -0.946331 0.029809 79.593754 -0.117770 -12.365198 7.575879 -0.896532 0.098534 -0.626342 -0.000000 0.000000 0.000000 0.000000 0.000000 0.000000 0.000000 
9.631013 17.149679 1.735840 5.312639 78.014072 31.409764 -8.940735 -0.080316 6.654662 -4.476762 -5.368445 -49.418065 -3.147098 -2.267184 2.532271 0.799607 2.619995 -5.833126 0.464700 -0.000000 -34.499300 10.234384 -4.684605 1.794125 1.975106 -0.296043 3.067392 0.990794 -0.588502 2.432868 -0.132659 2.753569 29.613782 1.530300 0.000000 -61.678801 -5.486941 1.425958 -9.033278 -1.844469 1.578508 -4.672554 -4.409368 1.480608 -0.034388 5.698938 -4.030510 -5.577666 -1.151314 -0.117399 0.559787 0.000000 0.000000 0.000000 3.894907 10.183085 3.688454 -8.307671 -16.547274 -18.081360 -0.851903 -64.053396 -0.118961 16.214842 -2.846347 -0.488036 -0.398645 0.504771 0.000000 0.000000 0.000000 0.000000 0.000000 0.000000 0.000000 1.088672 2.012746 -0.578204 31.005998 46.736567 0.462238 0.047824 80.216416 -0.118532 -12.295287 7.620023 -0.896784 0.096234 -0.631963 -0.000000 0.000000 0.000000 0.000000 0.000000 0.000000 0.000000 
9.953432 17.078619 1.747659 5.328347 77.550640 30.910047 -8.925505 -0.124866 6.587225 -4.757901 -4.820585 -49.446169 -3.280367 -2.339544 1.455773 0.592318 1.853704 -4.862665 0.482900 0.000000 -35.720300 10.293696 -4.786846 1.671167 1.332924 -0.687393 4.518291 0.904587 -0.669262 2.372422 -0.169743 3.400727 30.791395 2.011701 -0.000000 -59.089499 -5.852954 1.460520 -8.918111 -1.878928 1.647784 -4.647318 -4.218172 1.544410 -0.031682 5.757509 -4.136170 -5.552769 -1.009891 -0.107679 0.568003 0.000000 0.000000 0.000000 3.738718 10.333994 3.749801 -8.260808 -15.836153 -19.656857 -0.928298 -61.761374 -0.123301 16.760600 -2.809960 -0.499113 -0.407690 0.504014 0.000000 0.000000 0.000000 0.000000 0.000000 0.000000 0.000000 0.620662 1.904700 -0.673826 30.103121 48.573513 1.761189 0.067808 80.802055 -0.119422 -12.259622 7.660235 -0.899040 0.094582 -0.636829 -0.000000 0.000000 0.000000 0.000000 0.000000 0.000000 0.000000 
